<?xml version="1.0" encoding="UTF-8" standalone="no"?>
<!-- Created with Inkscape (http://www.inkscape.org/) -->

<svg
   xmlns:dc="http://purl.org/dc/elements/1.1/"
   xmlns:cc="http://creativecommons.org/ns#"
   xmlns:rdf="http://www.w3.org/1999/02/22-rdf-syntax-ns#"
   xmlns:svg="http://www.w3.org/2000/svg"
   xmlns="http://www.w3.org/2000/svg"
   xmlns:xlink="http://www.w3.org/1999/xlink"
   xmlns:sodipodi="http://sodipodi.sourceforge.net/DTD/sodipodi-0.dtd"
   xmlns:inkscape="http://www.inkscape.org/namespaces/inkscape"
   width="1366"
   height="768"
   viewBox="0 0 361.42083 203.20001"
   version="1.1"
   id="svg8"
   inkscape:version="0.92.5 (2060ec1f9f, 2020-04-08)"
   sodipodi:docname="winter_mountainBigCanvas.svg">
  <defs
     id="defs2">
    <linearGradient
       id="linearGradient1510"
       inkscape:collect="always">
      <stop
         id="stop1506"
         offset="0"
         style="stop-color:#525a7e;stop-opacity:1" />
      <stop
         id="stop1508"
         offset="1"
         style="stop-color:#ffffff;stop-opacity:1" />
    </linearGradient>
    <linearGradient
       inkscape:collect="always"
       id="linearGradient823">
      <stop
         style="stop-color:#55a1de;stop-opacity:1"
         offset="0"
         id="stop819" />
      <stop
         style="stop-color:#fafafa;stop-opacity:1"
         offset="1"
         id="stop821" />
    </linearGradient>
    <linearGradient
       inkscape:collect="always"
       xlink:href="#linearGradient823"
       id="linearGradient825"
       x1="145.52083"
       y1="-364.45831"
       x2="145.52083"
       y2="-33.729156"
       gradientUnits="userSpaceOnUse"
       gradientTransform="translate(-489.42396,20.953931)" />
    <linearGradient
       inkscape:collect="always"
       xlink:href="#linearGradient1510"
       id="linearGradient1503"
       x1="181.07008"
       y1="93.411728"
       x2="183.17442"
       y2="296.61191"
       gradientUnits="userSpaceOnUse"
       gradientTransform="matrix(3.7905951,0,0,3.7905951,-2.204015,-357.98954)" />
  </defs>
  <sodipodi:namedview
     id="base"
     pagecolor="#ffffff"
     bordercolor="#666666"
     borderopacity="1.0"
     inkscape:pageopacity="0.0"
     inkscape:pageshadow="2"
     inkscape:zoom="0.22627417"
     inkscape:cx="96.138789"
     inkscape:cy="447.74014"
     inkscape:document-units="px"
     inkscape:current-layer="g1383"
     showgrid="false"
     showborder="false"
     inkscape:snap-bbox="true"
     inkscape:snap-bbox-midpoints="true"
     inkscape:snap-bbox-edge-midpoints="true"
     inkscape:object-nodes="false"
     inkscape:snap-nodes="true"
     inkscape:bbox-paths="false"
     inkscape:bbox-nodes="true"
     inkscape:snap-others="false"
     units="px"
     inkscape:showpageshadow="false" />
  <metadata
     id="metadata5">
    <rdf:RDF>
      <cc:Work
         rdf:about="">
        <dc:format>image/svg+xml</dc:format>
        <dc:type
           rdf:resource="http://purl.org/dc/dcmitype/StillImage" />
        <dc:title />
      </cc:Work>
    </rdf:RDF>
  </metadata>
  <g
     style="display:inline;opacity:1"
     inkscape:label="big canvas"
     id="g1383"
     inkscape:groupmode="layer"
     transform="translate(0,-93.799984)">
    <g
       id="g178">
      <path
         id="rect1495"
         transform="matrix(0.26458334,0,0,0.26458334,0,93.799984)"
         d="M -0.83984375 -3.9042969 L -0.83984375 766.3457 L 1360.1992 766.3457 L 1360.1992 -3.9042969 L -0.83984375 -3.9042969 z "
         style="fill:url(#linearGradient1503);fill-opacity:1;fill-rule:evenodd;stroke-width:1" />
      <path
         inkscape:connector-curvature="0"
         id="path1343"
         d="m 145.56632,108.81721 c -7.79452,6.88633 -14.68214,14.94721 -23.12552,20.99389 -6.18773,3.52764 -12.88311,6.51972 -18.67918,10.52209 -2.5728,8.29359 -5.955263,16.35752 -7.693436,24.89217 5.224206,-5.34914 9.201996,-11.71822 13.706066,-17.64741 4.88395,4.48061 9.76815,8.96093 14.65197,13.44172 -0.0559,-4.91231 -0.113,-9.8246 -0.16975,-14.73689 9.87146,5.52197 19.74329,11.04326 29.61451,16.56565 -3.0925,-7.35137 -7.16827,-14.56478 -9.64073,-22.00332 0.48058,-5.07441 1.10373,-8.77527 2.83681,-1.78572 1.385,3.72969 2.77173,7.45873 4.15524,11.18896 1.51068,-6.9363 3.017,-13.87351 4.52594,-20.81017 0.9572,3.42207 1.31868,7.31253 2.99291,10.38811 7.98849,3.87441 16.38777,7.21468 22.80748,13.59504 2.71002,2.13665 -1.5021,6.00048 -1.91078,8.89469 -2.11904,5.00768 -4.16009,10.05828 -5.74019,15.26689 5.31461,-4.64347 9.76219,-10.1408 14.54294,-15.30444 5.88684,5.54117 11.5386,11.42371 17.59881,16.72574 10.9124,2.37636 21.77427,5.55589 32.7254,7.4041 8.50002,-1.13088 17.03517,-2.00505 25.49941,-3.39245 -2.33111,-3.63076 -7.307,-2.38906 -10.84005,-3.71978 -8.28335,-1.33731 -14.9984,-6.92466 -22.60987,-10.10245 -5.99581,-2.80004 -12.0186,-6.55656 -17.99817,-8.78275 -4.68464,3.09667 -6.19109,3.47563 -1.76574,-1.21756 -0.6255,-2.47991 -4.81515,-4.69416 -6.79573,-7.10187 -9.25117,-8.67288 -18.29074,-17.69621 -29.31486,-24.14857 -4.5545,-3.5976 -10.38868,-5.95556 -14.1309,-10.34093 -1.96133,-3.00021 -3.29094,-7.20091 -7.52021,-7.26238 -2.48215,-0.63078 -5.22594,-1.92013 -7.72237,-1.52236 z"
         style="fill:#faf6f5;fill-opacity:1;stroke:none;stroke-width:0.26458332px;stroke-linecap:butt;stroke-linejoin:miter;stroke-opacity:1" />
      <path
         inkscape:connector-curvature="0"
         id="path1345"
         d="m 157.51634,137.62642 c 4.32562,10.96781 8.65535,21.93405 12.98334,32.90093 0.94129,-3.01404 2.05098,-9.27858 2.8835,-10.12415 0.89858,5.88095 1.7948,11.76227 2.69499,17.64296 3.30001,-8.12961 6.60027,-16.25912 9.90301,-24.38767 -6.03847,-4.96237 -11.97287,-10.24779 -19.45694,-12.93613 -2.58422,-0.64619 -9.30047,-5.7507 -9.14239,-3.43748 z"
         style="fill:#c6bcc5;fill-opacity:1;stroke:none;stroke-width:0.26458332px;stroke-linecap:butt;stroke-linejoin:miter;stroke-opacity:1" />
      <path
         inkscape:connector-curvature="0"
         id="path1347"
         d="m 155.01569,121.18446 c -1.67497,6.58474 -2.95404,13.26226 -4.44335,19.89092 -2.1394,-5.73082 -4.24528,-11.4742 -6.40791,-17.19628 -0.77266,6.11615 -2.12798,12.23743 -2.53951,18.35079 3.09485,6.18149 5.3721,13.01201 9.01051,18.78735 7.27221,2.48705 14.54492,4.97256 21.81675,7.4606 -5.47281,-14.60724 -12.39856,-28.77142 -15.34862,-44.19599 -0.8073,-1.51128 -1.2181,-8.62092 -2.08787,-3.09739 z"
         style="fill:#aca8b6;fill-opacity:1;stroke:none;stroke-width:0.26458332px;stroke-linecap:butt;stroke-linejoin:miter;stroke-opacity:1" />
      <path
         inkscape:connector-curvature="0"
         id="path1349"
         d="m 121.63698,142.97934 c 0.39788,5.31576 -0.55808,11.03306 0.7082,16.11697 12.37535,8.87222 24.6876,17.83285 37.12603,26.61662 -2.28792,-5.24655 -5.84239,-11.15221 -7.55758,-15.87927 5.27996,-0.0876 10.6615,0.17527 15.18583,3.27577 6.79348,2.97462 13.38195,6.71101 20.31751,9.19189 17.05228,1.23822 34.22401,3.22341 51.20322,3.96704 1.96169,-1.7604 -1.66323,-3.17156 -3.06056,-2.97183 -9.646,-2.43829 -19.69314,-4.21139 -29.0569,-7.1861 -6.05797,-5.84361 -12.11605,-11.68695 -18.17377,-17.53075 -3.60562,3.92681 -7.21335,7.85177 -10.81984,11.77788 -1.12682,-7.31652 -2.07892,-14.66411 -3.61146,-21.9113 -1.87986,5.29358 -3.12951,10.76883 -4.54033,16.19699 -9.8357,-3.26895 -19.8732,-6.23575 -28.58294,-12.0767 -6.37897,-3.56958 -12.75944,-7.13651 -19.13741,-10.70775 v 0.65712 z"
         style="fill:#a49ea8;fill-opacity:1;stroke:none;stroke-width:0.26458332px;stroke-linecap:butt;stroke-linejoin:miter;stroke-opacity:1" />
      <path
         inkscape:connector-curvature="0"
         id="path1351"
         d="m 105.86687,138.3589 c -12.439413,9.78075 -24.328092,20.35474 -37.135089,29.60967 -16.193437,8.42056 -32.384764,16.8452 -48.579442,25.26319 8.792819,2.22176 17.499333,5.39998 26.335244,7.07497 13.618526,-7.02569 27.458092,-13.74045 40.921771,-20.98722 5.18,-8.39298 12.508842,-15.83152 14.671466,-25.76868 1.84597,-5.53687 4.09188,-10.41665 5.93921,-15.95307 -0.58378,0.47296 -1.56938,0.28818 -2.15316,0.76114 z"
         style="fill:#9893aa;fill-opacity:1;stroke:none;stroke-width:0.26458332px;stroke-linecap:butt;stroke-linejoin:miter;stroke-opacity:1"
         sodipodi:nodetypes="cccccccc" />
      <path
         inkscape:connector-curvature="0"
         id="path1353"
         d="m 108.92535,144.36669 c -8.08052,11.09278 -15.609407,22.8264 -24.037266,33.51884 -14.103205,7.1702 -28.208276,14.33675 -42.310243,21.50924 8.800644,2.83662 17.488034,6.26215 26.344931,8.76064 30.277031,-7.67828 60.120278,-16.89632 90.060908,-25.77258 -16.55333,-12.85816 -33.10651,-25.71661 -49.66058,-38.57399 l -0.38148,0.53504 z"
         style="fill:#c1b4bb;fill-opacity:1;stroke:none;stroke-width:0.26458332px;stroke-linecap:butt;stroke-linejoin:miter;stroke-opacity:1" />
      <path
         inkscape:connector-curvature="0"
         id="path1355"
         d="m 150.18427,167.1851 c -1.22369,-0.4085 -4.40311,0.52051 -2.32593,1.8215 11.09267,3.91099 22.37322,7.21985 33.62845,10.57 2.07309,-2.96007 -3.07003,-3.60877 -4.60727,-4.70076 -5.6766,-2.23589 -10.9593,-6.04963 -16.89556,-7.26694 -3.23631,-0.12083 -6.52613,-0.48594 -9.79969,-0.4238 z"
         style="fill:#e2d9d6;fill-opacity:1;stroke:none;stroke-width:0.26458332px;stroke-linecap:butt;stroke-linejoin:miter;stroke-opacity:1" />
      <path
         inkscape:connector-curvature="0"
         id="path1357"
         d="m 147.03152,168.17978 c 2.24595,4.47357 9.71118,9.72653 11.95216,14.20305 -18.55562,5.52437 -41.79006,9.54909 -60.298489,15.22925 1.070946,3.41417 5.449349,1.46877 7.941559,2.37441 7.88318,0.78086 16.27291,-0.22727 23.16015,4.42656 4.36438,1.80284 8.59836,4.94824 13.16788,5.64394 45.24491,-9.43106 90.58348,-18.66702 135.76985,-28.21988 1.92621,-1.75992 -1.42246,-3.18967 -2.88625,-2.23856 -13.18319,0.82553 -26.22072,3.27483 -39.37924,4.18132 -16.58773,-1.49182 -33.34906,-2.46823 -49.8311,-4.37843 -12.238,-5.57388 -24.09548,-7.4545 -36.75383,-11.90628 -1.7917,-0.50609 -3.8025,-1.16922 -2.84269,0.68462 z"
         style="fill:#cfbfc0;fill-opacity:1;stroke:none;stroke-width:0.26458332px;stroke-linecap:butt;stroke-linejoin:miter;stroke-opacity:1"
         sodipodi:nodetypes="cccccccccccc" />
      <path
         inkscape:connector-curvature="0"
         id="path1359"
         d="m 23.138043,191.68433 c -4.371698,1.67181 -9.603976,2.91918 -11.950143,7.55763 -1.8472057,3.04774 1.377424,6.69939 1.49875,9.96228 2.111588,7.96319 4.224667,15.926 6.335386,23.88941 20.225125,-0.76495 40.468629,-2.46883 60.682702,-2.62465 12.366658,1.71187 24.732312,3.70951 37.103302,5.21985 8.00016,-2.23425 15.96321,-5.39271 23.9861,-7.06325 18.59921,4.06455 37.36333,7.43395 55.31493,13.95444 9.47719,2.82448 18.86323,6.36318 28.41133,8.70501 6.53478,-0.57557 13.40576,0.0596 19.73823,-1.29199 1.80351,-1.76258 10.76558,-4.68032 4.56249,-5.15317 -15.36488,-3.72756 -31.34966,-5.60813 -45.72719,-12.56583 -22.84785,-9.50246 -46.1292,-18.03995 -68.58427,-28.44126 -5.52075,-2.56602 -10.85573,-6.23004 -17.21656,-5.69199 -8.17589,-0.36783 -16.65415,-2.40549 -24.505923,0.90963 -8.253377,1.95888 -16.543138,4.97705 -24.774285,6.29083 -14.768078,-5.03892 -29.67288,-10.39697 -44.874849,-13.65694 z"
         style="fill:#525a7e;fill-opacity:1;stroke:none;stroke-width:0.26458332px;stroke-linecap:butt;stroke-linejoin:miter;stroke-opacity:1" />
      <path
         sodipodi:nodetypes="ccccccc"
         inkscape:connector-curvature="0"
         id="path1361"
         d="m 278.27348,179.37045 c -46.88655,9.72219 -87.25081,19.42797 -134.1389,29.14372 27.13348,10.73578 47.39951,22.41299 74.75234,32.54943 4.82791,1.56016 8.98126,-2.88065 13.50563,-3.85673 21.14698,-8.58759 42.29421,-17.1746 63.44103,-25.76258 -5.69311,-10.72527 -11.38324,-21.45215 -17.075,-32.17815 z"
         style="fill:#b5a4aa;fill-opacity:1;stroke:none;stroke-width:0.26458332px;stroke-linecap:butt;stroke-linejoin:miter;stroke-opacity:1" />
      <path
         inkscape:connector-curvature="0"
         id="path1363"
         d="m 293.76226,209.49667 c -25.63767,10.41129 -51.27536,20.82252 -76.9127,31.23464 10.67453,2.04212 21.31863,4.87621 32.00108,6.47347 6.22114,-2.77538 12.31796,-6.82467 18.6156,-8.81637 7.27962,2.24855 15.04694,3.6743 22.03106,6.42137 3.27286,3.37436 6.54105,6.75326 9.81677,10.12484 16.79488,-8.42751 33.59067,-16.85323 50.38581,-25.28023 -18.64358,-6.65955 -37.29794,-13.80458 -55.93762,-20.15772 z"
         style="fill:#858399;fill-opacity:1;stroke:none;stroke-width:0.26458332px;stroke-linecap:butt;stroke-linejoin:miter;stroke-opacity:1" />
      <path
         inkscape:connector-curvature="0"
         id="path1365"
         d="m 276.98337,180.56057 c 5.85101,10.59257 10.31396,21.19467 16.59214,31.44156 17.7283,6.44585 35.45623,12.89272 53.18476,19.33793 1.71248,-2.92347 7.92704,-5.00705 6.37122,-8.53851 -4.1908,-9.12583 -8.38321,-18.25092 -12.57305,-27.37721 -6.27942,0.64442 -11.99642,-2.93397 -18.09266,-3.88111 -15.64506,-4.28267 -29.1108,-13.26244 -46.14981,-12.18932 0.23769,0.44789 0.42969,0.75876 0.6674,1.20666 z"
         style="fill:#9e8a96;fill-opacity:1;stroke:none;stroke-width:0.26458332px;stroke-linecap:butt;stroke-linejoin:miter;stroke-opacity:1"
         sodipodi:nodetypes="cccccccc" />
      <path
         id="path1367"
         transform="matrix(0.26458334,0,0,0.26458334,0,93.799984)"
         d="M 1276.3516 384.07422 L 1277.4023 386.32422 L 1278.084 387.78711 C 1295.0442 424.67001 1311.9723 461.57061 1328.9238 498.45898 C 1337.1911 493.90668 1351.4367 493.79883 1360.1992 489.61133 L 1360.1992 387.95508 C 1332.2501 386.65974 1304.3014 385.35525 1276.3516 384.07422 z "
         style="fill:#887684;fill-opacity:1;stroke:none;stroke-width:0.99999994px;stroke-linecap:butt;stroke-linejoin:miter;stroke-opacity:1" />
      <path
         inkscape:connector-curvature="0"
         id="path1369"
         d="m 139.72344,225.90711 c -8.24542,2.19464 -16.25689,5.74643 -24.65754,7.04865 -13.30696,-1.61657 -26.539279,-4.4685 -39.904477,-5.22675 -18.945186,0.93789 -37.890368,1.87431 -56.835427,2.81309 2.571558,9.23203 5.142246,18.46429 7.715294,27.69594 24.112514,-2.09809 48.197704,-5.06491 72.328724,-6.60346 11.955986,1.13428 24.107176,1.36751 35.920596,3.17429 6.47062,3.81638 14.14903,1.47283 21.20939,2.14422 25.02923,0.0692 50.10787,0.43219 75.10658,0.24687 5.75501,-3.04439 11.57715,-5.96325 17.2084,-9.23602 -8.54551,-0.47244 -17.22343,1.38588 -25.66605,0.177 -21.3993,-6.51197 -42.42826,-14.55606 -64.52107,-18.53263 -5.95999,-1.2368 -11.93115,-2.68313 -17.90442,-3.7012 z"
         style="fill:#4e4b66;fill-opacity:1;stroke:none;stroke-width:0.26458332px;stroke-linecap:butt;stroke-linejoin:miter;stroke-opacity:1" />
      <path
         inkscape:connector-curvature="0"
         id="path1371"
         d="m 266.09786,235.69128 c -12.38051,6.2513 -24.55953,13.33096 -37.0652,19.06766 -29.76812,-0.1573 -59.53625,-0.3146 -89.30437,-0.47192 -6.95394,-4.12156 -15.19341,-2.70306 -22.83792,-3.82389 -11.19872,-0.93904 -22.461507,-2.22376 -33.639244,-0.32004 -19.339961,1.85826 -38.679917,3.71688 -58.019998,5.57494 3.406184,9.75232 6.80976,19.50557 10.215943,29.25791 50.255895,0.57171 100.547569,1.4325 150.781479,1.79967 24.66363,-11.21048 49.05871,-23.10345 73.90489,-33.8549 11.03953,-3.16098 22.06321,-6.33608 33.10009,-9.48505 -9.16823,-2.03076 -17.95656,-6.11344 -27.13567,-7.74438 z"
         style="fill:#25192d;fill-opacity:1;stroke:none;stroke-width:0.26458332px;stroke-linecap:butt;stroke-linejoin:miter;stroke-opacity:1" />
      <path
         sodipodi:nodetypes="cccc"
         inkscape:connector-curvature="0"
         id="path1373"
         d="m 211.05039,159.19332 c -1.00463,1.00968 -2.26091,2.06151 -2.80947,3.71614 1.66794,-0.35453 3.34149,-1.33972 4.57521,-2.49858 -0.53775,-0.28933 -1.27712,-1.3514 -1.76574,-1.21756 z"
         style="fill:#d8ced1;fill-opacity:1;stroke:none;stroke-width:0.26458332px;stroke-linecap:butt;stroke-linejoin:miter;stroke-opacity:1" />
      <path
         id="path1375"
         transform="matrix(0.26458334,0,0,0.26458334,0,93.799984)"
         d="M 1234.1016 457.87695 C 1233.4813 460.49261 1232.8606 463.10899 1232.2402 465.72461 C 1227.7004 484.91663 1223.165 504.10827 1218.627 523.30078 C 1136.8529 549.64783 1054.2317 573.04215 971.93555 597.55469 C 878.57627 640.31343 785.41791 683.7085 692.11328 726.66211 C 723.49814 734.50353 753.40961 752.36095 786.70898 748.2207 C 939.61052 747.40565 1092.6329 745.28101 1245.459 745.2832 C 1281.748 752.30326 1318.0367 759.32784 1354.3262 766.3457 C 1356.5117 761.75686 1358.5205 757.087 1360.1992 752.33594 L 1360.1992 481.60742 C 1334.4007 489.61231 1308.6027 497.62064 1282.8047 505.62695 C 1276.1546 498.73551 1265.8089 469.37206 1261.623 477.4375 C 1258.6316 487.68875 1257.7169 504.76912 1253.7363 510.20117 C 1248.4412 492.33776 1240.1861 475.50924 1234.1016 457.87695 z "
         style="fill:#160d22;fill-opacity:1;stroke:none;stroke-width:0.99999994px;stroke-linecap:butt;stroke-linejoin:miter;stroke-opacity:1" />
      <path
         id="path1379"
         transform="matrix(0.26458334,0,0,0.26458334,0,93.799984)"
         d="M 50.837891 337.96289 C 50.061591 340.41047 49.284113 342.85906 48.507812 345.30664 C 43.90304 359.83322 39.300575 374.35827 34.695312 388.88477 C 23.516562 387.77442 12.338907 386.66335 1.1601562 385.55273 L 1.1601562 766.34375 L 1360.1992 766.34375 L 1360.1992 726.57617 C 1359.7844 726.55873 1359.3698 726.5408 1358.9551 726.52344 C 1352.7257 737.65781 1357.2998 766.02184 1338.4844 757.06055 C 1292.1167 748.93339 1246.2212 735.18365 1198.6875 737.86133 L 997.46484 734.34375 C 991.17435 719.87784 984.87157 705.41895 978.58984 690.94922 C 974.22895 698.55605 970.95153 735.77339 965.76367 720.59961 C 959.96686 704.54992 954.1748 688.49789 948.375 672.44922 C 940.87366 692.91646 933.35314 713.37555 925.84375 733.83984 L 764.94531 731.37305 C 753.96628 703.06858 742.98866 674.76491 732.00781 646.46094 C 724.24432 669.73103 716.49322 693.0057 708.73438 716.27734 C 684.40192 707.55045 660.06877 698.82072 635.73633 690.09375 C 630.60222 684.23182 627.24328 652.93159 620.83203 665.4707 C 617.67185 682.22754 614.43794 667.24661 610.54102 657.24023 C 605.04294 639.16937 599.76869 626.86741 595.84766 652.4668 C 591.30667 667.19845 590.6069 688.0116 570.26953 677.72656 C 537.11472 672.64582 503.9595 667.56504 470.80469 662.48438 C 465.38938 653.4615 458.65383 620.72389 455.11914 645.99219 C 447.99073 623.62226 440.34485 599.89851 433.00977 577.02148 C 428.46277 594.60619 423.89677 612.18514 419.3418 629.76758 C 403.1229 615.88125 383.4148 604.39439 369.2832 589.07227 C 365.83491 580.14143 360.5117 551.47076 357.47461 565.88281 C 351.08581 549.40324 344.42924 533.01128 337.9668 516.55469 C 333.07532 525.70931 328.71854 562.43822 323.19531 537.18164 C 317.17214 520.74119 311.13537 504.30698 305.12109 487.86328 C 299.78229 491.59417 297.61893 512.34614 294.60156 496.87695 C 286.00581 472.20767 277.42164 447.53642 268.82031 422.86914 C 264.18225 438.51109 259.5409 454.15297 254.90234 469.79492 C 249.41659 462.47432 242.43056 427.71786 238.08203 441.23047 C 232.9314 452.64355 231.25179 475.66736 224.08203 480.32812 C 206.54293 464.70424 183.38346 453.34065 178.33984 428.31836 C 173.66091 404.55749 172.02531 437.2535 168.10156 427.35938 C 165.74355 423.23998 164.09946 407.48304 156.50586 413.35352 C 150.71362 426.19975 151.4238 448.25381 131.86133 441.67188 C 119.20301 438.05146 95.50154 450.00541 93.009766 432.04688 C 89.035789 425.97143 86.161497 399.1112 80.759766 415.70117 C 77.150007 431.55633 74.096342 403.21392 70.722656 398.58203 C 64.09733 378.3749 57.446791 358.17554 50.837891 337.96289 z "
         style="fill:#0a0710;fill-opacity:1;stroke:none;stroke-width:0.99999994px;stroke-linecap:butt;stroke-linejoin:miter;stroke-opacity:1" />
    </g>
  </g>
</svg>
