<?xml version="1.0" encoding="UTF-8" standalone="no"?>
<!-- Created with Inkscape (http://www.inkscape.org/) -->

<svg
   xmlns:dc="http://purl.org/dc/elements/1.1/"
   xmlns:cc="http://creativecommons.org/ns#"
   xmlns:rdf="http://www.w3.org/1999/02/22-rdf-syntax-ns#"
   xmlns:svg="http://www.w3.org/2000/svg"
   xmlns="http://www.w3.org/2000/svg"
   xmlns:xlink="http://www.w3.org/1999/xlink"
   xmlns:sodipodi="http://sodipodi.sourceforge.net/DTD/sodipodi-0.dtd"
   xmlns:inkscape="http://www.inkscape.org/namespaces/inkscape"
   width="210mm"
   height="297mm"
   viewBox="0 0 210 297"
   version="1.1"
   id="svg8"
   inkscape:version="0.92.5 (2060ec1f9f, 2020-04-08)"
   sodipodi:docname="winter_mountain00.svg">
  <defs
     id="defs2">
    <linearGradient
       id="linearGradient1337"
       inkscape:collect="always">
      <stop
         id="stop1333"
         offset="0"
         style="stop-color:#525a7e;stop-opacity:1" />
      <stop
         id="stop1335"
         offset="1"
         style="stop-color:#fafafa;stop-opacity:1" />
    </linearGradient>
    <linearGradient
       inkscape:collect="always"
       id="linearGradient823">
      <stop
         style="stop-color:#55a1de;stop-opacity:1"
         offset="0"
         id="stop819" />
      <stop
         style="stop-color:#fafafa;stop-opacity:1"
         offset="1"
         id="stop821" />
    </linearGradient>
    <linearGradient
       inkscape:collect="always"
       xlink:href="#linearGradient823"
       id="linearGradient825"
       x1="145.52083"
       y1="-364.45831"
       x2="145.52083"
       y2="-33.729156"
       gradientUnits="userSpaceOnUse"
       gradientTransform="translate(-489.42396,20.953931)" />
    <linearGradient
       inkscape:collect="always"
       xlink:href="#linearGradient1337"
       id="linearGradient1395"
       gradientUnits="userSpaceOnUse"
       gradientTransform="translate(0.59509878,42.927973)"
       x1="140.22916"
       y1="-358.10834"
       x2="132.74561"
       y2="140.2523" />
  </defs>
  <sodipodi:namedview
     id="base"
     pagecolor="#ffffff"
     bordercolor="#666666"
     borderopacity="1.0"
     inkscape:pageopacity="0.0"
     inkscape:pageshadow="2"
     inkscape:zoom="0.25"
     inkscape:cx="259.22351"
     inkscape:cy="962.27582"
     inkscape:document-units="px"
     inkscape:current-layer="layer4"
     showgrid="false"
     showborder="false"
     inkscape:snap-bbox="true"
     inkscape:snap-bbox-midpoints="false"
     inkscape:snap-bbox-edge-midpoints="false"
     inkscape:object-nodes="true"
     inkscape:snap-nodes="true"
     inkscape:bbox-paths="false"
     inkscape:bbox-nodes="true" />
  <metadata
     id="metadata5">
    <rdf:RDF>
      <cc:Work
         rdf:about="">
        <dc:format>image/svg+xml</dc:format>
        <dc:type
           rdf:resource="http://purl.org/dc/dcmitype/StillImage" />
        <dc:title></dc:title>
      </cc:Work>
    </rdf:RDF>
  </metadata>
  <g
     inkscape:groupmode="layer"
     id="layer4"
     inkscape:label="mymountain"
     style="display:inline;opacity:1"
     sodipodi:insensitive="true">
    <rect
       y="-315.18036"
       x="-4.6965704"
       height="661.45837"
       width="291.04166"
       id="rect1393"
       style="display:inline;opacity:1;fill:url(#linearGradient1395);fill-opacity:1;fill-rule:evenodd;stroke:none;stroke-width:0.26458332" />
    <path
       style="fill:#faf6f5;fill-opacity:1;stroke:none;stroke-width:0.26458332px;stroke-linecap:butt;stroke-linejoin:miter;stroke-opacity:1"
       d="m 131.7214,-135.06837 c -11.96619,11.10116 -23.50176,22.727 -35.753077,33.4829 -11.140027,6.241994 -22.757922,11.931545 -33.582863,18.550306 -3.858539,12.50168 -8.881375,24.685561 -11.914062,37.431641 7.663347,-8.502305 13.766394,-18.265185 20.738281,-27.326172 7.809894,7.166018 15.619805,14.332016 23.429688,21.498047 -0.09004,-7.968104 -0.181065,-15.936197 -0.271485,-23.904297 16.018838,8.960361 32.038008,17.920131 48.056648,26.880859 -4.98961,-10.939444 -9.97917,-21.878908 -14.96875,-32.818359 0.83984,-5.597005 1.67968,-11.194011 2.51953,-16.791017 3.38195,9.10685 6.76564,18.213052 10.14648,27.320314 2.583,-11.870092 5.1625,-23.740943 7.74414,-35.611322 1.88621,6.985438 3.04086,14.457024 5.54688,21.162103 8.95935,4.70931 18.62347,8.222935 27.07569,13.774215 4.63949,3.7556 9.27897,7.511201 13.91845,11.266801 -4.57209,11.760932 -10.03367,23.194833 -13.92969,35.205078 7.86295,-7.249002 14.5351,-15.66519 21.86719,-23.433594 9.89256,9.419488 19.57401,19.134038 29.60937,28.355469 17.67757,4.135541 35.33437,8.428117 53.02735,12.4550783 13.86321,-1.8778639 27.79314,-3.2625133 41.60742,-5.4902343 -2.15913,-2.979031 -6.55879,-1.94275 -9.63477,-3.128907 -7.19596,-1.476584 -14.7783,-2.021832 -21.04695,-6.258542 -17.45645,-8.844612 -34.91211,-17.690792 -52.36906,-26.534427 -4.59568,2.665227 -9.19282,5.32793 -13.78906,7.992188 3.14996,-3.885883 6.29819,-7.773178 9.44921,-11.658203 -13.99194,-12.654541 -27.42313,-25.970027 -41.76585,-38.205407 -13.46477,-9.08908 -26.92954,-18.178168 -40.3943,-27.267248 -2.78464,-4.17526 -5.03659,-8.85664 -8.17578,-12.70117 -5.69768,-1.24702 -11.43929,-3.87311 -17.14063,-4.2461 z"
       id="path1089"
       inkscape:connector-curvature="0" />
    <path
       style="fill:#c6bcc5;fill-opacity:1;stroke:none;stroke-width:0.26458332px;stroke-linecap:butt;stroke-linejoin:miter;stroke-opacity:1"
       d="m 152.39523,-87.015633 c 6.63243,16.80052 13.26093,33.603225 19.89258,50.404297 1.70952,-6.618855 3.4221,-13.236919 5.13281,-19.855468 1.61882,10.604766 3.23495,21.209945 4.85547,31.814453 4.89385,-12.055227 9.7911,-24.109075 14.68555,-36.164063 -8.35553,-6.24977 -15.6209,-14.267812 -25.58355,-18.029486 -6.49354,-3.144664 -12.98784,-6.287753 -19.48091,-9.433404 0.16602,0.421223 0.33203,0.842447 0.49805,1.263671 z"
       id="path1091"
       inkscape:connector-curvature="0" />
    <path
       style="fill:#aca8b6;fill-opacity:1;stroke:none;stroke-width:0.26458332px;stroke-linecap:butt;stroke-linejoin:miter;stroke-opacity:1"
       d="m 147.25851,-113.07813 c -2.75227,11.55806 -5.07681,23.220845 -7.66797,34.818357 -3.49963,-9.402567 -6.97585,-18.81389 -10.49023,-28.210937 -1.18056,8.597178 -2.81496,17.1984 -3.70117,25.794921 4.877,10.173053 9.05033,20.8828 14.37695,30.720703 11.37301,3.89009 22.74634,7.779241 34.11914,11.669922 -6.50419,-17.311847 -14.1517,-34.208215 -19.89722,-51.778306 -2.04664,-8.312282 -3.95932,-16.65838 -6.22387,-24.91505 -0.17188,0.63346 -0.34375,1.26693 -0.51563,1.90039 z"
       id="path1093"
       inkscape:connector-curvature="0" />
    <path
       style="fill:#a49ea8;fill-opacity:1;stroke:none;stroke-width:0.26458332px;stroke-linecap:butt;stroke-linejoin:miter;stroke-opacity:1"
       d="m 92.221398,-78.050789 c 0.386363,8.30489 -0.389237,16.927425 0.714844,25.044922 19.478838,13.963258 38.864778,28.057482 58.412108,41.923828 -3.93642,-8.192416 -8.08192,-16.281855 -12.125,-24.421875 6.33291,0.612638 12.91132,-0.106554 19.05198,1.496177 13.80599,6.439433 27.56293,13.021148 41.40506,19.359292 28.44979,2.313003 56.94692,4.8504304 85.36718,7.0234378 1.79244,-0.6456924 0.23596,-2.4550388 -1.10351,-2.3496094 -17.09673,-3.8895254 -34.14218,-8.0667774 -51.22461,-12.0468754 -10.15623,-9.796901 -20.31265,-19.593592 -30.46875,-29.390625 -6.26617,6.821663 -12.53399,13.641807 -18.80078,20.462891 -1.87187,-11.519687 -3.22483,-23.129701 -5.55274,-34.570313 -2.66507,7.891914 -4.35694,16.082741 -6.54492,24.085938 -11.43225,-4.36958 -23.51994,-7.122139 -34.50057,-12.561119 -14.8798,-8.323768 -29.76135,-16.644399 -44.640058,-24.970131 l 0.0057,0.529136 z"
       id="path1095"
       inkscape:connector-curvature="0" />
    <path
       style="fill:#9893aa;fill-opacity:1;stroke:none;stroke-width:0.99999994px;stroke-linecap:butt;stroke-linejoin:miter;stroke-opacity:1"
       d="m 247.72461,-324.32422 c -1.77658,1.43701 -3.5535,2.87549 -5.33008,4.3125 -73.94927,59.32014 -146.716038,120.30031 -221.458983,178.54492 -12.8951129,6.70635 -25.7904883,13.41269 -38.685547,20.11914 V 1.4511719 C 30.137105,-22.806381 77.986216,-47.122728 125.47266,-71.966797 c 25.04489,-38.241883 52.91651,-74.874443 76.17773,-114.146483 15.35831,-46.07006 30.71222,-92.14211 46.07422,-138.21094 z"
       transform="scale(0.26458333)"
       id="path1097"
       inkscape:connector-curvature="0" />
    <path
       style="fill:#c1b4bb;fill-opacity:1;stroke:none;stroke-width:0.99999994px;stroke-linecap:butt;stroke-linejoin:miter;stroke-opacity:1"
       d="m 267.72852,-287.31055 -1.1543,1.63282 -0.0566,0.0801 c -48.9941,69.42979 -98.02328,138.8425 -147.03125,208.265629 C 73.741302,-54.076009 27.996008,-30.820499 -17.75,-7.5664062 V 98.486328 c 9.7283232,3.197332 19.4653199,6.346332 29.224609,9.371092 C 132.92833,75.972836 254.217,43.421532 374.17578,6.2519531 439.64576,-13.188486 505.11511,-32.634766 570.58594,-52.072266 469.63442,-130.48614 368.68057,-208.89738 267.72852,-287.31055 Z"
       transform="scale(0.26458333)"
       id="path1099"
       inkscape:connector-curvature="0" />
    <path
       style="fill:#e2d9d6;fill-opacity:1;stroke:none;stroke-width:0.26458332px;stroke-linecap:butt;stroke-linejoin:miter;stroke-opacity:1"
       d="m 138.66671,-37.550789 c -1.94131,0.02523 -6.42048,0.100451 -2.31652,1.329411 14.30686,5.306513 29.13551,9.075878 43.58801,13.949886 3.42558,1.053646 6.86017,2.080748 10.32812,2.984375 1.48449,-2.15772 -2.31068,-2.986444 -3.62695,-3.708984 -9.86282,-4.503637 -19.59659,-9.374463 -29.49219,-13.785157 -6.16076,-0.09655 -12.30015,-0.88567 -18.48047,-0.769531 z"
       id="path1101"
       inkscape:connector-curvature="0" />
    <path
       style="fill:#cfbfc0;fill-opacity:1;stroke:none;stroke-width:0.99999994px;stroke-linecap:butt;stroke-linejoin:miter;stroke-opacity:1"
       d="m 511.76758,-145.16406 c 0.70371,1.4001 1.40758,2.79912 2.11133,4.19922 14.13762,28.25969 28.26013,56.52678 42.39257,84.789059 C 439.45993,-21.303162 322.255,12.230296 205.72852,48.033203 c 3.55774,9.428485 17.15543,4.82418 24.55273,6.607422 41.87234,4.171453 85.31085,4.069546 127.0293,10.449219 38.85941,18.282542 77.12936,38.616516 116.38867,55.537106 C 676.54992,78.583721 879.39936,36.539589 1082.25,-5.5039062 V -37.804688 c -13.852,0.773588 -27.7285,0.328527 -41.623,-1.777343 -94.83769,-7.895807 -189.67416,-15.791693 -284.51177,-23.6875 -52.36459,-26.889661 -110.72155,-38.357089 -166.04492,-57.484379 -26.10153,-8.13528 -52.19803,-16.28511 -78.30273,-24.41015 z"
       transform="scale(0.26458333)"
       id="path1105"
       inkscape:connector-curvature="0" />
    <path
       style="fill:#525a7e;fill-opacity:1;stroke:none;stroke-width:0.99999994px;stroke-linecap:butt;stroke-linejoin:miter;stroke-opacity:1"
       d="M 207.76953,46.708984 C 142.03778,64.409653 76.305973,82.109878 10.574219,99.810547 1.1323136,96.559075 -8.3075684,93.2964 -17.75,90.037109 V 250.67969 c 30.046977,-1.36723 60.093947,-2.61902 90.140625,-3.67774 80.124075,11.31171 160.233635,23.55661 240.374995,34.23243 49.33071,-15.22884 98.6615,-30.45671 147.99219,-45.68555 82.24804,18.78954 165.46149,33.72518 247.04297,55.20117 93.32024,29.52002 186.54854,59.5199 279.95117,88.66406 31.45745,-1.52623 63.04345,-2.34962 94.49805,-3.91797 V 333.14258 C 1031.0614,322.16509 979.79698,311.48143 929.39844,297.57812 773.65548,233.80571 617.00853,172.12578 461.87695,106.92969 425.53748,90.007293 389.90519,70.539307 353.06836,55.326172 304.65088,52.900947 256.1294,46.579335 207.76953,46.708984 Z"
       transform="scale(0.26458333)"
       id="path1107"
       inkscape:connector-curvature="0" />
    <path
       style="fill:#b5a4aa;fill-opacity:1;stroke:none;stroke-width:0.99999994px;stroke-linecap:butt;stroke-linejoin:miter;stroke-opacity:1"
       d="M 1082.25,-13.671875 C 874.55717,29.378416 666.8655,72.4282 459.17188,115.47461 c 160.61846,64.48786 320.43477,131.30429 481.55664,194.32031 14.72515,3.52427 30.86081,13.44691 45.33398,3.0586 32.0624,-13.02117 64.125,-26.04145 96.1875,-39.0625 z"
       transform="scale(0.26458333)"
       id="path1109"
       inkscape:connector-curvature="0" />
    <path
       style="fill:#858399;fill-opacity:1;stroke:none;stroke-width:0.99999994px;stroke-linecap:butt;stroke-linejoin:miter;stroke-opacity:1"
       d="m 1082.25,265.1582 c -41.4308,16.82606 -82.86153,33.6525 -124.29297,50.47657 41.44591,8.37056 82.85817,17.77415 124.29297,26.40429 z"
       transform="scale(0.26458333)"
       id="path1111"
       inkscape:connector-curvature="0" />
    <path
       style="fill:#4e4b66;fill-opacity:1;stroke:none;stroke-width:0.99999994px;stroke-linecap:butt;stroke-linejoin:miter;stroke-opacity:1"
       d="M 459.42188,227.5918 C 408.62238,242.1441 358.6488,260.99414 307.33789,272.75977 226.33693,261.61406 145.52244,248.39085 64.398438,238.60742 37.015632,239.96245 9.632818,241.31717 -17.75,242.67188 v 157.2207 c 69.113108,-6.69753 138.23421,-13.24522 207.38672,-19.14453 77.18917,6.69966 154.83932,10.41455 231.73242,19.09375 18.05197,7.90284 36.87142,18.39295 57.34766,14.69336 183.22657,0.68341 366.60839,2.52033 549.7383,2.41601 17.8442,-9.54577 35.8775,-18.73876 53.7949,-28.14648 v -21.42774 c -32.6872,1.4099 -65.3779,3.94971 -97.92773,2.81446 C 883.03316,338.74114 782.52151,304.58468 680.70508,274.96289 606.94061,259.29102 533.25958,242.41313 459.42188,227.5918 Z"
       transform="scale(0.26458333)"
       id="path1117"
       inkscape:connector-curvature="0" />
    <path
       style="fill:#25192d;fill-opacity:1;stroke:none;stroke-width:0.99999994px;stroke-linecap:butt;stroke-linejoin:miter;stroke-opacity:1"
       d="M 177.24609,373.19727 C 112.24745,379.44319 47.248717,385.68932 -17.75,391.93555 v 201.66797 c 255.68825,3.2932 511.41222,6.88987 767.02148,9.44531 C 860.37702,551.96881 971.16699,500.12677 1082.25,448.99219 v -69.24805 c -18.879,9.88979 -37.7577,19.78014 -56.6367,29.66992 -189.40702,-0.999 -378.81374,-1.99705 -568.22072,-2.99609 -20.51838,-8.96678 -41.49826,-19.76879 -64.58985,-17.98633 -71.85606,-4.72127 -143.63233,-12.91006 -215.55664,-15.23437 z"
       transform="scale(0.26458333)"
       id="path1119"
       inkscape:connector-curvature="0" />
    <path
       style="fill:#d8ced1;fill-opacity:1;stroke:none;stroke-width:0.26458332px;stroke-linecap:butt;stroke-linejoin:miter;stroke-opacity:1"
       d="m 237.26437,-53.623054 c -4.89975,6.29904 -10.35655,12.181145 -14.77344,18.849609 7.9477,-3.728026 15.26831,-8.613674 22.94141,-12.851563 -2.61037,-2.137883 -5.22159,-4.27475 -7.83399,-6.410156 l -0.33317,0.411111 z"
       id="path1123"
       inkscape:connector-curvature="0" />
    <path
       style="fill:#160d22;fill-opacity:1;stroke:#000000;stroke-width:0.99999994px;stroke-linecap:butt;stroke-linejoin:miter;stroke-opacity:1"
       d="M 1082.25,444.87109 C 969.14315,497.1035 856.03515,549.33267 742.93164,601.57227 c 34.93569,10.66178 69.55151,23.38207 104.67383,32.82617 L 1082.25,632.64648 Z"
       transform="scale(0.26458333)"
       id="path1215"
       inkscape:connector-curvature="0" />
    <path
       style="fill:#0a0710;fill-opacity:1;stroke:#000000;stroke-width:0.99999994px;stroke-linecap:butt;stroke-linejoin:miter;stroke-opacity:1"
       d="M 26.714844,109.79102 C 19.11171,135.43996 11.513362,161.09074 3.9121094,186.74023 -3.3087807,169.61693 -10.52875,152.4925 -17.75,135.36914 V 1308.7676 h 1100 V 617.82031 c -77.448,-1.18848 -154.89576,-2.37789 -232.34375,-3.5664 -17.24171,-44.44139 -34.48248,-88.88295 -51.72461,-133.32422 -12.16014,36.46499 -24.31055,72.93407 -36.4668,109.40039 -42.44095,-15.22394 -84.8813,-30.44794 -127.32226,-45.67188 -5.73366,-14.59139 -11.46311,-29.18497 -17.19922,-43.77539 -4.02728,5.66419 -7.72697,35.12923 -12.00781,22.60157 -8.05384,-21.12121 -16.11424,-42.24053 -24.16407,-63.36329 -6.99038,23.24225 -13.99151,46.47983 -20.98632,69.72071 L 359.91211,499.16406 c -5.49951,-13.09791 -11.00044,-26.197 -16.5,-39.29492 -3.71252,11.90064 -7.41727,30.09343 -11.09766,7.80469 -10.66926,-33.24805 -21.32958,-66.49966 -32.0039,-99.7461 -6.91307,26.70503 -13.8452,53.40626 -20.76563,80.10938 -29.39468,-22.82479 -58.78891,-45.64982 -88.18359,-68.47461 -4.19535,-13.81644 -8.39084,-27.6327 -12.58594,-41.44922 -2.48407,21.92014 -7.63396,-1.70973 -11.92969,-10.7793 -8.29957,-20.92516 -16.6019,-41.84902 -24.89843,-62.77539 -5.8819,18.07227 -11.7407,36.15323 -17.61329,54.22852 C 111.48536,283.73515 98.629816,248.68622 85.785156,213.63281 81.092873,219.58726 75.4172,244.39836 71.351562,237.92773 56.471823,195.21576 41.599291,152.50135 26.714844,109.79102 Z"
       transform="scale(0.26458333)"
       id="path1288"
       inkscape:connector-curvature="0" />
  </g>
</svg>
